<?xml version="1.0" encoding="UTF-8" standalone="no"?>
<!DOCTYPE svg PUBLIC "-//W3C//DTD SVG 1.1//EN"
 "http://www.w3.org/Graphics/SVG/1.1/DTD/svg11.dtd">
<!-- Generated by graphviz version 2.40.1 (20161225.0304)
 -->
<!-- Title: G Pages: 1 -->
<svg width="159pt" height="260pt"
 viewBox="0.00 0.00 159.35 260.00" xmlns="http://www.w3.org/2000/svg" xmlns:xlink="http://www.w3.org/1999/xlink">
<g id="graph0" class="graph" transform="scale(1 1) rotate(0) translate(4 256)">
<title>G</title>
<polygon fill="#ffffff" stroke="transparent" points="-4,4 -4,-256 155.3467,-256 155.3467,4 -4,4"/>
<!-- logo -->
<g id="node1" class="node">
<title>logo</title>
<ellipse fill="none" stroke="#000000" cx="75.6733" cy="-234" rx="28.4127" ry="18"/>
<text text-anchor="middle" x="75.6733" y="-229.8" font-family="Times,serif" font-size="14.00" fill="#000000">logo</text>
</g>
<!-- breadcrumb trail -->
<g id="node2" class="node">
<title>breadcrumb trail</title>
<ellipse fill="none" stroke="#000000" cx="75.6733" cy="-162" rx="75.2382" ry="18"/>
<text text-anchor="middle" x="75.6733" y="-157.8" font-family="Times,serif" font-size="14.00" fill="#000000">breadcrumb trail</text>
</g>
<!-- logo&#45;&gt;breadcrumb trail -->
<g id="edge1" class="edge">
<title>logo&#45;&gt;breadcrumb trail</title>
<path fill="none" stroke="#000000" d="M75.6733,-215.8314C75.6733,-208.131 75.6733,-198.9743 75.6733,-190.4166"/>
<polygon fill="#000000" stroke="#000000" points="79.1734,-190.4132 75.6733,-180.4133 72.1734,-190.4133 79.1734,-190.4132"/>
</g>
<!-- navigation menu -->
<g id="node3" class="node">
<title>navigation menu</title>
<ellipse fill="none" stroke="#000000" cx="75.6733" cy="-90" rx="75.8471" ry="18"/>
<text text-anchor="middle" x="75.6733" y="-85.8" font-family="Times,serif" font-size="14.00" fill="#000000">navigation menu</text>
</g>
<!-- breadcrumb trail&#45;&gt;navigation menu -->
<g id="edge2" class="edge">
<title>breadcrumb trail&#45;&gt;navigation menu</title>
<path fill="none" stroke="#000000" d="M75.6733,-143.8314C75.6733,-136.131 75.6733,-126.9743 75.6733,-118.4166"/>
<polygon fill="#000000" stroke="#000000" points="79.1734,-118.4132 75.6733,-108.4133 72.1734,-118.4133 79.1734,-118.4132"/>
</g>
<!-- body -->
<g id="node4" class="node">
<title>body</title>
<ellipse fill="none" stroke="#000000" cx="75.6733" cy="-18" rx="30.2015" ry="18"/>
<text text-anchor="middle" x="75.6733" y="-13.8" font-family="Times,serif" font-size="14.00" fill="#000000">body</text>
</g>
<!-- navigation menu&#45;&gt;body -->
<g id="edge3" class="edge">
<title>navigation menu&#45;&gt;body</title>
<path fill="none" stroke="#000000" d="M75.6733,-71.8314C75.6733,-64.131 75.6733,-54.9743 75.6733,-46.4166"/>
<polygon fill="#000000" stroke="#000000" points="79.1734,-46.4132 75.6733,-36.4133 72.1734,-46.4133 79.1734,-46.4132"/>
</g>
</g>
</svg>
